<?xml version="1.0" ?><!DOCTYPE svg  PUBLIC '-//W3C//DTD SVG 1.1//EN'  'http://www.w3.org/Graphics/SVG/1.1/DTD/svg11.dtd'><svg enable-background="new 0 0 512 512" height="512px" id="Layer_1" version="1.1" viewBox="0 0 512 512" width="512px" xml:space="preserve" xmlns="http://www.w3.org/2000/svg" xmlns:xlink="http://www.w3.org/1999/xlink"><g><path clip-rule="evenodd" d="M25.701,0C11.487,0,0,11.49,0,25.706v460.891   C0,500.519,11.487,512,25.701,512h460.89c13.912,0,25.409-11.48,25.409-25.403V25.706C512,11.49,500.503,0,486.591,0H25.701z    M104.033,125.201c35.375-35.08,104.637-39.315,152.112,20.263c47.477-59.579,116.737-55.343,151.821-20.263   c32.054,32.057,29.939,81.053,16.027,120.969c-34.782,99.798-143.053,155.761-167.849,166.344   c-25.097-10.583-133.066-66.546-168.14-166.344C74.094,206.254,72.271,157.258,104.033,125.201L104.033,125.201z" fill="#040404" fill-rule="evenodd"/></g></svg>